<?xml version="1.0" encoding="UTF-8"?>
<!-- SPDX-License-Identifier: CC-BY-4.0 -->
<svg xmlns="http://www.w3.org/2000/svg" width="4720" height="430" viewBox="0 0 4720 430" role="img" aria-labelledby="svg-title svg-desc">
<title id="svg-title">cqa005 First Contact — external child graph</title>
<desc id="svg-desc">Exact graph with 15 nodes and 14 edges. Runtime evidence remains Experimental.</desc>
<metadata>{&quot;edge_count&quot;:14,&quot;evidence_class&quot;:&quot;Experimental&quot;,&quot;node_count&quot;:15,&quot;source&quot;:&quot;examples/lab-05-first-contact/completed/source/raw/mod/cqa/cqa005/phases/cqa005_contact.questphase.json&quot;,&quot;source_fingerprint&quot;:&quot;sha256:1c6fe28c01a681084d93a54a42a1f0d1128bc2cfe93e108b6c46985171572815&quot;}</metadata>
<defs>
<marker id="arrow" viewBox="0 0 10 10" refX="9" refY="5" markerWidth="7" markerHeight="7" orient="auto-start-reverse"><path d="M 0 0 L 10 5 L 0 10 z" fill="#c9d1dc"/></marker>
<style>
    .bg { fill: #10151d; }
    .title { fill: #f7f9fc; font: 700 28px system-ui, sans-serif; }
    .subtitle { fill: #aeb8c8; font: 14px system-ui, sans-serif; }
    .badge { fill: #4a3200; stroke: #f5b942; stroke-width: 1.5; }
    .badge-text { fill: #ffd982; font: 700 14px system-ui, sans-serif; text-anchor: middle; }
    .edge { fill: none; stroke: #c9d1dc; stroke-width: 2.1; marker-end: url(#arrow); }
    .edge-dashed { fill: none; stroke: #f3be55; stroke-width: 2; stroke-dasharray: 7 7; marker-end: url(#arrow); }
    .edge-label { fill: #e0e5ed; font: 12px ui-monospace, Consolas, monospace; text-anchor: middle; paint-order: stroke; stroke: #10151d; stroke-width: 5px; stroke-linejoin: round; }
    .node { stroke: #e6e9ef; stroke-width: 1.5; }
    .boundary { fill: #4b5563; }
    .gate { fill: #956600; }
    .journal { fill: #247a4b; }
    .phase { fill: #315f9a; }
    .fact { fill: #6d3ea0; }
    .community { fill: #8a4f22; }
    .scene { fill: #7b315e; }
    .action { fill: #315f78; }
    .node-id { fill: #f7f8fa; font: 12px ui-monospace, Consolas, monospace; }
    .node-title { fill: #ffffff; font: 700 16px system-ui, sans-serif; }
    .node-detail { fill: #f3f5f8; font: 12px ui-monospace, Consolas, monospace; }
    .node-type { fill: #d2d9e3; font: 10px ui-monospace, Consolas, monospace; }
    .panel { fill: #181f2a; stroke: #506078; stroke-width: 1.5; }
    .panel-blue { fill: #182b49; stroke: #78a9ff; stroke-width: 2; }
    .panel-green { fill: #173d38; stroke: #68d8c5; stroke-width: 2; }
    .panel-amber { fill: #493510; stroke: #f3be55; stroke-width: 2; }
    .panel-magenta { fill: #47203d; stroke: #e07abc; stroke-width: 2; }
    .panel-title { fill: #ffffff; font: 700 18px system-ui, sans-serif; }
    .label { fill: #f7f9fc; font: 600 14px system-ui, sans-serif; }
    .detail { fill: #dce2eb; font: 12px ui-monospace, Consolas, monospace; }
    .note { fill: #bac4d3; font: 13px system-ui, sans-serif; }
    .warn { fill: #ffd982; font: 600 13px system-ui, sans-serif; }

</style>
</defs>
<rect class="bg" width="4720" height="430"/>
<text class="title" x="40" y="48">cqa005 First Contact — external child graph</text>
<text class="subtitle" x="40" y="77">15 nodes • 14 edges • spawn, scene, cleanup, terminating return</text>
<rect class="badge" x="4490" y="27" width="190" height="36" rx="18"/>
<text class="badge-text" x="4585" y="51">Experimental</text>
<g data-source="0" data-source-socket="Out" data-destination="10" data-destination-socket="Active">
<path class="edge" d="M 190 198 C 230 198, 190 198, 230 198"/>
<text class="edge-label" x="210" y="188">Out → Active</text>
</g>
<g data-source="10" data-source-socket="Out" data-destination="11" data-destination-socket="Active">
<path class="edge" d="M 500 198 C 540 198, 500 198, 540 198"/>
<text class="edge-label" x="520" y="188">Out → Active</text>
</g>
<g data-source="11" data-source-socket="Out" data-destination="12" data-destination-socket="In">
<path class="edge" d="M 820 198 C 860 198, 820 198, 860 198"/>
<text class="edge-label" x="840" y="188">Out → In</text>
</g>
<g data-source="12" data-source-socket="Out" data-destination="13" data-destination-socket="In">
<path class="edge" d="M 1150 198 C 1190 198, 1150 198, 1190 198"/>
<text class="edge-label" x="1170" y="188">Out → In</text>
</g>
<g data-source="13" data-source-socket="Out" data-destination="14" data-destination-socket="In">
<path class="edge" d="M 1490 198 C 1530 198, 1490 198, 1530 198"/>
<text class="edge-label" x="1510" y="188">Out → In</text>
</g>
<g data-source="14" data-source-socket="Out" data-destination="15" data-destination-socket="In">
<path class="edge" d="M 1810 198 C 1850 198, 1810 198, 1850 198"/>
<text class="edge-label" x="1830" y="188">Out → In</text>
</g>
<g data-source="15" data-source-socket="Out" data-destination="16" data-destination-socket="start">
<path class="edge" d="M 2120 198 C 2160 198, 2120 198, 2160 198"/>
<text class="edge-label" x="2140" y="188">Out → start</text>
</g>
<g data-source="16" data-source-socket="contact_done" data-destination="17" data-destination-socket="Succeeded">
<path class="edge" d="M 2440 198 C 2480 198, 2440 198, 2480 198"/>
<text class="edge-label" x="2460" y="188">contact_done → Succeeded</text>
</g>
<g data-source="17" data-source-socket="Out" data-destination="18" data-destination-socket="Inactive">
<path class="edge" d="M 2770 198 C 2810 198, 2770 198, 2810 198"/>
<text class="edge-label" x="2790" y="188">Out → Inactive</text>
</g>
<g data-source="18" data-source-socket="Out" data-destination="19" data-destination-socket="Active">
<path class="edge" d="M 3100 198 C 3140 198, 3100 198, 3140 198"/>
<text class="edge-label" x="3120" y="188">Out → Active</text>
</g>
<g data-source="19" data-source-socket="Out" data-destination="20" data-destination-socket="In">
<path class="edge" d="M 3420 198 C 3460 198, 3420 198, 3460 198"/>
<text class="edge-label" x="3440" y="188">Out → In</text>
</g>
<g data-source="20" data-source-socket="Out" data-destination="21" data-destination-socket="In">
<path class="edge" d="M 3750 198 C 3790 198, 3750 198, 3790 198"/>
<text class="edge-label" x="3770" y="188">Out → In</text>
</g>
<g data-source="21" data-source-socket="Out" data-destination="22" data-destination-socket="Succeeded">
<path class="edge" d="M 4100 198 C 4140 198, 4100 198, 4140 198"/>
<text class="edge-label" x="4120" y="188">Out → Succeeded</text>
</g>
<g data-source="22" data-source-socket="Out" data-destination="1" data-destination-socket="In">
<path class="edge" d="M 4440 198 C 4480 198, 4440 198, 4480 198"/>
<text class="edge-label" x="4460" y="188">Out → In</text>
</g>
<g data-node-id="0" data-node-type="questInputNodeDefinition">
<rect class="node boundary" x="30" y="140" width="160" height="116" rx="58"/>
<text class="node-id" x="44" y="161">ID 0</text>
<text class="node-title" x="44" y="188">Input</text>
<text class="node-detail" x="44" y="214">In1</text>
<text class="node-type" x="44" y="239">questInputNodeDefinition</text>
</g>
<g data-node-id="1" data-node-type="questOutputNodeDefinition">
<rect class="node boundary" x="4480" y="140" width="200" height="116" rx="58"/>
<text class="node-id" x="4494" y="161">ID 1</text>
<text class="node-title" x="4494" y="188">Output</text>
<text class="node-detail" x="4494" y="214">Terminating • Out1</text>
<text class="node-type" x="4494" y="239">questOutputNodeDefinition</text>
</g>
<g data-node-id="10" data-node-type="questJournalNodeDefinition">
<rect class="node journal" x="230" y="140" width="270" height="116" rx="10"/>
<text class="node-id" x="244" y="161">ID 10</text>
<text class="node-title" x="244" y="188">Meet • Active</text>
<text class="node-detail" x="244" y="214">cqa005_01_obj_meet</text>
<text class="node-type" x="244" y="239">questJournalNodeDefinition</text>
</g>
<g data-node-id="11" data-node-type="questMappinManagerNodeDefinition">
<rect class="node journal" x="540" y="140" width="280" height="116" rx="10"/>
<text class="node-id" x="554" y="161">ID 11</text>
<text class="node-title" x="554" y="188">Mappin • Active</text>
<text class="node-detail" x="554" y="214">#cqa005_mp_contact</text>
<text class="node-type" x="554" y="239">questMappinManagerNodeDefinition</text>
</g>
<g data-node-id="12" data-node-type="questSpawnManagerNodeDefinition">
<rect class="node community" x="860" y="140" width="290" height="116" rx="10"/>
<text class="node-id" x="874" y="161">ID 12</text>
<text class="node-title" x="874" y="188">Community • Activate</text>
<text class="node-detail" x="874" y="214">contact / default</text>
<text class="node-type" x="874" y="239">questSpawnManagerNodeDefinition</text>
</g>
<g data-node-id="13" data-node-type="questPauseConditionNodeDefinition">
<polygon class="node gate" points="1210,140 1470,140 1490,198 1470,256 1210,256 1190,198"/>
<text class="node-id" x="1204" y="161">ID 13</text>
<text class="node-title" x="1204" y="188">Character spawned</text>
<text class="node-detail" x="1204" y="214">entireCommunity &gt; 0</text>
<text class="node-type" x="1204" y="239">questPauseConditionNodeDefinition</text>
</g>
<g data-node-id="14" data-node-type="questPauseConditionNodeDefinition">
<polygon class="node gate" points="1550,140 1790,140 1810,198 1790,256 1550,256 1530,198"/>
<text class="node-id" x="1544" y="161">ID 14</text>
<text class="node-title" x="1544" y="188">Wait • IsInside</text>
<text class="node-detail" x="1544" y="214">#cqa005_tr_setup</text>
<text class="node-type" x="1544" y="239">questPauseConditionNodeDefinition</text>
</g>
<g data-node-id="15" data-node-type="questCheckpointNodeDefinition">
<rect class="node action" x="1850" y="140" width="270" height="116" rx="10"/>
<text class="node-id" x="1864" y="161">ID 15</text>
<text class="node-title" x="1864" y="188">Checkpoint</text>
<text class="node-detail" x="1864" y="214">cqa005_first_contact</text>
<text class="node-type" x="1864" y="239">questCheckpointNodeDefinition</text>
</g>
<g data-node-id="16" data-node-type="questSceneNodeDefinition">
<rect class="node scene" x="2160" y="140" width="280" height="116" rx="10"/>
<text class="node-id" x="2174" y="161">ID 16</text>
<text class="node-title" x="2174" y="188">Scene</text>
<text class="node-detail" x="2174" y="214">start → contact_done</text>
<text class="node-type" x="2174" y="239">questSceneNodeDefinition</text>
</g>
<g data-node-id="17" data-node-type="questJournalNodeDefinition">
<rect class="node journal" x="2480" y="140" width="290" height="116" rx="10"/>
<text class="node-id" x="2494" y="161">ID 17</text>
<text class="node-title" x="2494" y="188">Meet • Succeeded</text>
<text class="node-detail" x="2494" y="214">cqa005_01_obj_meet</text>
<text class="node-type" x="2494" y="239">questJournalNodeDefinition</text>
</g>
<g data-node-id="18" data-node-type="questMappinManagerNodeDefinition">
<rect class="node journal" x="2810" y="140" width="290" height="116" rx="10"/>
<text class="node-id" x="2824" y="161">ID 18</text>
<text class="node-title" x="2824" y="188">Mappin • Inactive</text>
<text class="node-detail" x="2824" y="214">#cqa005_mp_contact</text>
<text class="node-type" x="2824" y="239">questMappinManagerNodeDefinition</text>
</g>
<g data-node-id="19" data-node-type="questJournalNodeDefinition">
<rect class="node journal" x="3140" y="140" width="280" height="116" rx="10"/>
<text class="node-id" x="3154" y="161">ID 19</text>
<text class="node-title" x="3154" y="188">Leave • Active</text>
<text class="node-detail" x="3154" y="214">cqa005_01_obj_leave</text>
<text class="node-type" x="3154" y="239">questJournalNodeDefinition</text>
</g>
<g data-node-id="20" data-node-type="questPauseConditionNodeDefinition">
<polygon class="node gate" points="3480,140 3730,140 3750,198 3730,256 3480,256 3460,198"/>
<text class="node-id" x="3474" y="161">ID 20</text>
<text class="node-title" x="3474" y="188">Wait • IsOutside</text>
<text class="node-detail" x="3474" y="214">#cqa005_tr_cleanup</text>
<text class="node-type" x="3474" y="239">questPauseConditionNodeDefinition</text>
</g>
<g data-node-id="21" data-node-type="questSpawnManagerNodeDefinition">
<rect class="node community" x="3790" y="140" width="310" height="116" rx="10"/>
<text class="node-id" x="3804" y="161">ID 21</text>
<text class="node-title" x="3804" y="188">Community • Deactivate</text>
<text class="node-detail" x="3804" y="214">whole / None / None</text>
<text class="node-type" x="3804" y="239">questSpawnManagerNodeDefinition</text>
</g>
<g data-node-id="22" data-node-type="questJournalNodeDefinition">
<rect class="node journal" x="4140" y="140" width="300" height="116" rx="10"/>
<text class="node-id" x="4154" y="161">ID 22</text>
<text class="node-title" x="4154" y="188">Leave • Succeeded</text>
<text class="node-detail" x="4154" y="214">cqa005_01_obj_leave</text>
<text class="node-type" x="4154" y="239">questJournalNodeDefinition</text>
</g>
<text class="warn" x="40" y="395">All CutDestination sockets are present and unwired.</text>
<text class="note" x="4680" y="395" text-anchor="end">Experimental — runtime acceptance pending</text>
</svg>
