<?xml version="1.0" encoding="UTF-8"?>
<!-- SPDX-License-Identifier: CC-BY-4.0 -->
<svg xmlns="http://www.w3.org/2000/svg" width="3360" height="430" viewBox="0 0 3360 430" role="img" aria-labelledby="svg-title svg-desc">
<title id="svg-title">cqa004 Handoff Point — external child graph</title>
<desc id="svg-desc">Exact cqa004 Handoff Point — external child graph graph with 10 nodes and 9 edges. Socket labels come from serialized graph connections. Runtime evidence remains Experimental.</desc>
<metadata>{&quot;edge_count&quot;:9,&quot;evidence_class&quot;:&quot;Experimental&quot;,&quot;node_count&quot;:10,&quot;source&quot;:&quot;examples/lab-04-handoff-point/completed/source/raw/mod/cqa/cqa004/phases/cqa004_boundary.questphase.json&quot;,&quot;source_fingerprint&quot;:&quot;sha256:c3255c0dff8fe0427c7b370747afabd4c81dd1348f13af4f2d384e4b3d09dbbc&quot;}</metadata>
<defs>
<marker id="arrow" viewBox="0 0 10 10" refX="9" refY="5" markerWidth="7" markerHeight="7" orient="auto-start-reverse"><path d="M 0 0 L 10 5 L 0 10 z" fill="#c9d1dc"/></marker>
<style>
    .bg { fill: #10151d; }
    .title { fill: #f7f9fc; font: 700 28px system-ui, sans-serif; }
    .subtitle { fill: #aeb8c8; font: 14px system-ui, sans-serif; }
    .badge { fill: #4a3200; stroke: #f5b942; stroke-width: 1.5; }
    .badge-text { fill: #ffd982; font: 700 14px system-ui, sans-serif; text-anchor: middle; }
    .edge { fill: none; stroke: #c9d1dc; stroke-width: 2.1; marker-end: url(#arrow); }
    .edge-label { fill: #e0e5ed; font: 12px ui-monospace, Consolas, monospace;
                  text-anchor: middle; paint-order: stroke; stroke: #10151d;
                  stroke-width: 5px; stroke-linejoin: round; }
    .node { stroke: #e6e9ef; stroke-width: 1.5; }
    .boundary { fill: #4b5563; }
    .gate { fill: #956600; }
    .journal { fill: #247a4b; }
    .phase { fill: #315f9a; }
    .fact { fill: #6d3ea0; }
    .node-id { fill: #f7f8fa; font: 12px ui-monospace, Consolas, monospace; }
    .node-title { fill: #ffffff; font: 700 16px system-ui, sans-serif; }
    .node-detail { fill: #f3f5f8; font: 12px ui-monospace, Consolas, monospace; }
    .node-type { fill: #d2d9e3; font: 10px ui-monospace, Consolas, monospace; }
    .panel { fill: #181f2a; stroke: #506078; stroke-width: 1.5; }
    .panel-blue { fill: #182b49; stroke: #78a9ff; stroke-width: 2; }
    .panel-green { fill: #173d38; stroke: #68d8c5; stroke-width: 2; }
    .panel-amber { fill: #493510; stroke: #f3be55; stroke-width: 2; }
    .panel-title { fill: #ffffff; font: 700 18px system-ui, sans-serif; }
    .label { fill: #f7f9fc; font: 600 14px system-ui, sans-serif; }
    .detail { fill: #dce2eb; font: 12px ui-monospace, Consolas, monospace; }
    .note { fill: #bac4d3; font: 13px system-ui, sans-serif; }
    .warn { fill: #ffd982; font: 600 13px system-ui, sans-serif; }
    .dashed { fill: none; stroke: #f3be55; stroke-width: 2; stroke-dasharray: 7 7; }

</style>
</defs>
<rect class="bg" width="3360" height="430"/>
<text class="title" x="40" y="48">cqa004 Handoff Point — external child graph</text>
<text class="subtitle" x="40" y="77">10 nodes • 9 edges • terminating Out1 returns to the parent</text>
<rect class="badge" x="3130" y="27" width="190" height="36" rx="18"/>
<text class="badge-text" x="3225" y="51">Experimental</text>
<g data-source="0" data-source-socket="Out" data-destination="10" data-destination-socket="Active">
<path class="edge" d="M 210 208 C 250 208, 220 208, 260 208"/>
<text class="edge-label" x="235" y="198">Out → Active</text>
</g>
<g data-source="10" data-source-socket="Out" data-destination="11" data-destination-socket="Active">
<path class="edge" d="M 540 208 C 580 208, 550 208, 590 208"/>
<text class="edge-label" x="565" y="198">Out → Active</text>
</g>
<g data-source="11" data-source-socket="Out" data-destination="12" data-destination-socket="In">
<path class="edge" d="M 880 208 C 920 208, 890 208, 930 208"/>
<text class="edge-label" x="905" y="198">Out → In</text>
</g>
<g data-source="12" data-source-socket="Out" data-destination="13" data-destination-socket="Inactive">
<path class="edge" d="M 1220 208 C 1260 208, 1230 208, 1270 208"/>
<text class="edge-label" x="1245" y="198">Out → Inactive</text>
</g>
<g data-source="13" data-source-socket="Out" data-destination="14" data-destination-socket="Succeeded">
<path class="edge" d="M 1570 208 C 1610 208, 1580 208, 1620 208"/>
<text class="edge-label" x="1595" y="198">Out → Succeeded</text>
</g>
<g data-source="14" data-source-socket="Out" data-destination="15" data-destination-socket="Active">
<path class="edge" d="M 1910 208 C 1950 208, 1920 208, 1960 208"/>
<text class="edge-label" x="1935" y="198">Out → Active</text>
</g>
<g data-source="15" data-source-socket="Out" data-destination="16" data-destination-socket="In">
<path class="edge" d="M 2240 208 C 2280 208, 2250 208, 2290 208"/>
<text class="edge-label" x="2265" y="198">Out → In</text>
</g>
<g data-source="16" data-source-socket="Out" data-destination="17" data-destination-socket="Succeeded">
<path class="edge" d="M 2580 208 C 2620 208, 2590 208, 2630 208"/>
<text class="edge-label" x="2605" y="198">Out → Succeeded</text>
</g>
<g data-source="17" data-source-socket="Out" data-destination="1" data-destination-socket="In">
<path class="edge" d="M 2930 208 C 2998.4 208, 3041.6 208, 3110 208"/>
<text class="edge-label" x="3020" y="198">Out → In</text>
</g>
<g data-node-id="0" data-node-type="questInputNodeDefinition">
<rect class="node boundary" x="40" y="150" width="170" height="116" rx="58"/>
<text class="node-id" x="54" y="171">ID 0</text>
<text class="node-title" x="54" y="198">Input</text>
<text class="node-detail" x="54" y="224">In1</text>
<text class="node-type" x="54" y="249">questInputNodeDefinition</text>
</g>
<g data-node-id="1" data-node-type="questOutputNodeDefinition">
<rect class="node boundary" x="3110" y="150" width="210" height="116" rx="58"/>
<text class="node-id" x="3124" y="171">ID 1</text>
<text class="node-title" x="3124" y="198">Output</text>
<text class="node-detail" x="3124" y="224">Terminating • Out1</text>
<text class="node-type" x="3124" y="249">questOutputNodeDefinition</text>
</g>
<g data-node-id="10" data-node-type="questJournalNodeDefinition">
<rect class="node journal" x="260" y="150" width="280" height="116" rx="10"/>
<text class="node-id" x="274" y="171">ID 10</text>
<text class="node-title" x="274" y="198">Reach • Active</text>
<text class="node-detail" x="274" y="224">cqa004_01_obj_reach</text>
<text class="node-type" x="274" y="249">questJournalNodeDefinition</text>
</g>
<g data-node-id="11" data-node-type="questMappinManagerNodeDefinition">
<rect class="node journal" x="590" y="150" width="290" height="116" rx="10"/>
<text class="node-id" x="604" y="171">ID 11</text>
<text class="node-title" x="604" y="198">Mappin • Active</text>
<text class="node-detail" x="604" y="224">disablePreviousMappins = 0</text>
<text class="node-type" x="604" y="249">questMappinManagerNodeDefinition</text>
</g>
<g data-node-id="12" data-node-type="questPauseConditionNodeDefinition">
<polygon class="node gate" points="950,150 1200,150 1220,208 1200,266 950,266 930,208"/>
<text class="node-id" x="944" y="171">ID 12</text>
<text class="node-title" x="944" y="198">Wait • IsInside</text>
<text class="node-detail" x="944" y="224">#cqa004_tr_reach</text>
<text class="node-type" x="944" y="249">questPauseConditionNodeDefinition</text>
</g>
<g data-node-id="13" data-node-type="questMappinManagerNodeDefinition">
<rect class="node journal" x="1270" y="150" width="300" height="116" rx="10"/>
<text class="node-id" x="1284" y="171">ID 13</text>
<text class="node-title" x="1284" y="198">Mappin • Inactive</text>
<text class="node-detail" x="1284" y="224">disablePreviousMappins = 0</text>
<text class="node-type" x="1284" y="249">questMappinManagerNodeDefinition</text>
</g>
<g data-node-id="14" data-node-type="questJournalNodeDefinition">
<rect class="node journal" x="1620" y="150" width="290" height="116" rx="10"/>
<text class="node-id" x="1634" y="171">ID 14</text>
<text class="node-title" x="1634" y="198">Reach • Succeeded</text>
<text class="node-detail" x="1634" y="224">cqa004_01_obj_reach</text>
<text class="node-type" x="1634" y="249">questJournalNodeDefinition</text>
</g>
<g data-node-id="15" data-node-type="questJournalNodeDefinition">
<rect class="node journal" x="1960" y="150" width="280" height="116" rx="10"/>
<text class="node-id" x="1974" y="171">ID 15</text>
<text class="node-title" x="1974" y="198">Leave • Active</text>
<text class="node-detail" x="1974" y="224">cqa004_01_obj_leave</text>
<text class="node-type" x="1974" y="249">questJournalNodeDefinition</text>
</g>
<g data-node-id="16" data-node-type="questPauseConditionNodeDefinition">
<polygon class="node gate" points="2310,150 2560,150 2580,208 2560,266 2310,266 2290,208"/>
<text class="node-id" x="2304" y="171">ID 16</text>
<text class="node-title" x="2304" y="198">Wait • IsOutside</text>
<text class="node-detail" x="2304" y="224">#cqa004_tr_leave</text>
<text class="node-type" x="2304" y="249">questPauseConditionNodeDefinition</text>
</g>
<g data-node-id="17" data-node-type="questJournalNodeDefinition">
<rect class="node journal" x="2630" y="150" width="300" height="116" rx="10"/>
<text class="node-id" x="2644" y="171">ID 17</text>
<text class="node-title" x="2644" y="198">Leave • Succeeded</text>
<text class="node-detail" x="2644" y="224">cqa004_01_obj_leave</text>
<text class="node-type" x="2644" y="249">questJournalNodeDefinition</text>
</g>
<text class="warn" x="40" y="395">All CutDestination sockets are present and unwired.</text>
<text class="note" x="3320" y="395" text-anchor="end">Experimental — runtime acceptance pending</text>
</svg>
